<svg xmlns="http://www.w3.org/2000/svg" xmlns:xlink="http://www.w3.org/1999/xlink" width="108" height="108" viewBox="0 0 108 108">
  <defs>
    <filter id="Rectangle_411831" x="0" y="0" width="108" height="108" filterUnits="userSpaceOnUse">
      <feOffset dy="3" input="SourceAlpha"/>
      <feGaussianBlur stdDeviation="3" result="blur"/>
      <feFlood flood-opacity="0.161"/>
      <feComposite operator="in" in2="blur"/>
      <feComposite in="SourceGraphic"/>
    </filter>
    <clipPath id="clip-path">
      <rect id="Rectangle_428153" data-name="Rectangle 428153" width="55" height="64" transform="translate(-2370 -8613)" fill="#fff" stroke="#707070" stroke-width="1" opacity="0"/>
    </clipPath>
  </defs>
  <g id="Group_1236041" data-name="Group 1236041" transform="translate(2396.057 8632.01)">
    <g id="Group_1236036" data-name="Group 1236036" transform="translate(-2387.056 -8626.01)">
      <g id="Group_1235933" data-name="Group 1235933">
        <g id="Group_1235902" data-name="Group 1235902">
          <g transform="matrix(1, 0, 0, 1, -9, -6)" filter="url(#Rectangle_411831)">
            <g id="Rectangle_411831-2" data-name="Rectangle 411831" transform="translate(9 6)" fill="#c0a6f0" stroke="#fff" stroke-width="2">
              <path d="M5,0H58A32,32,0,0,1,90,32V85a5,5,0,0,1-5,5H32A32,32,0,0,1,0,58V5A5,5,0,0,1,5,0Z" stroke="none"/>
              <path d="M5,1H58A31,31,0,0,1,89,32V85a4,4,0,0,1-4,4H32A31,31,0,0,1,1,58V5A4,4,0,0,1,5,1Z" fill="none"/>
            </g>
          </g>
        </g>
      </g>
    </g>
    <g id="Mask_Group_1099576" data-name="Mask Group 1099576" clip-path="url(#clip-path)">
      <g id="publicacion-de-videos" transform="translate(-2370.994 -8609.494)">
        <g id="Group_1236572" data-name="Group 1236572">
          <g id="Group_1236571" data-name="Group 1236571">
            <path id="Path_1263306" data-name="Path 1263306" d="M9.72,8.267H47.1a2.754,2.754,0,0,1,2.742,2.742V42.895A2.757,2.757,0,0,1,47.1,45.65H9.72a2.757,2.757,0,0,1-2.742-2.755V11.009A2.754,2.754,0,0,1,9.72,8.267Z" fill="#eceff1" fill-rule="evenodd"/>
            <g id="Group_1236568" data-name="Group 1236568">
              <path id="Path_1263307" data-name="Path 1263307" d="M4.63,13.446H42.013a2.754,2.754,0,0,1,2.742,2.742V48.074a2.757,2.757,0,0,1-2.742,2.755H4.63a2.757,2.757,0,0,1-2.742-2.755V16.188A2.754,2.754,0,0,1,4.63,13.446Z" fill="#fe646f" fill-rule="evenodd"/>
              <path id="Path_1263308" data-name="Path 1263308" d="M39.778,13.446h2.235a2.754,2.754,0,0,1,2.742,2.742V48.074a2.757,2.757,0,0,1-2.742,2.755H39.778a2.757,2.757,0,0,0,2.742-2.755V16.188a2.754,2.754,0,0,0-2.742-2.742Z" fill="#fd4755" fill-rule="evenodd"/>
              <path id="Path_1263309" data-name="Path 1263309" d="M31.475,31.414a1.414,1.414,0,0,1,0,2.449L18.016,41.634A1.414,1.414,0,0,1,15.9,40.409V24.868a1.414,1.414,0,0,1,2.121-1.224Z" fill="#eceff1" fill-rule="evenodd"/>
              <path id="Path_1263310" data-name="Path 1263310" d="M17.868,41.708a1.414,1.414,0,0,1-1.973-1.3V24.868a1.414,1.414,0,0,1,1.973-1.3,1.413,1.413,0,0,0-.855,1.3V40.409a1.414,1.414,0,0,0,.707,1.224A1.392,1.392,0,0,0,17.868,41.708Z" fill="#d1d1d6" fill-rule="evenodd"/>
            </g>
            <g id="Group_1236569" data-name="Group 1236569">
              <circle id="Ellipse_12754" data-name="Ellipse 12754" cx="9.663" cy="9.663" r="9.663" transform="translate(35.775 35.987)" fill="#6cf5c2"/>
              <path id="Path_1263311" data-name="Path 1263311" d="M44.879,36q.277-.016.559-.016a9.663,9.663,0,0,1,0,19.326q-.281,0-.559-.016a9.663,9.663,0,0,0,0-19.294Z" fill="#00e499" fill-rule="evenodd"/>
            </g>
            <g id="Group_1236570" data-name="Group 1236570">
              <path id="Path_1263312" data-name="Path 1263312" d="M26.612,1.832,32.7,9.007a.443.443,0,0,1-.337.731H29.529v9.424a.885.885,0,0,1-.884.884H23.9a.885.885,0,0,1-.884-.884V9.737H20.182a.443.443,0,0,1-.337-.731l6.093-7.175a.429.429,0,0,1,.337-.156.433.433,0,0,1,.337.156Z" fill="#ffe177" fill-rule="evenodd"/>
              <path id="Path_1263313" data-name="Path 1263313" d="M21.3,9.737H20.182a.443.443,0,0,1-.337-.731l6.093-7.175a.429.429,0,0,1,.337-.156.433.433,0,0,1,.337.156l.222.261L20.962,9.007a.443.443,0,0,0,.337.731Zm3.722,10.308H23.9a.885.885,0,0,1-.884-.884V9.737h1.117v9.424A.885.885,0,0,0,25.021,20.045Z" fill="#ffd064" fill-rule="evenodd"/>
            </g>
          </g>
        </g>
        <path id="Path_1263314" data-name="Path 1263314" d="M36.8,51.723H4.63A3.654,3.654,0,0,1,.994,48.074V16.188A3.652,3.652,0,0,1,4.63,12.552H6.084V11.009A3.652,3.652,0,0,1,9.72,7.373H20.06l5.2-6.12,0,0a1.336,1.336,0,0,1,2.029,0l0,0,5.2,6.12H47.1a3.652,3.652,0,0,1,3.636,3.636V36.52A10.557,10.557,0,1,1,36.8,51.723ZM7.871,12.552H22.126V10.631H20.182a1.322,1.322,0,0,1-1.213-.775l0-.005a1.339,1.339,0,0,1-.119-.69H9.72a1.856,1.856,0,0,0-1.848,1.848ZM22.126,14.34H4.63a1.856,1.856,0,0,0-1.848,1.848V48.074A1.86,1.86,0,0,0,4.63,49.935H35.788A10.561,10.561,0,0,1,43.861,35.21V16.188a1.856,1.856,0,0,0-1.848-1.848H30.423v4.821a1.78,1.78,0,0,1-1.778,1.778H23.9a1.78,1.78,0,0,1-1.778-1.778ZM33.7,9.161a1.34,1.34,0,0,1-.12.69l0,.005a1.322,1.322,0,0,1-1.213.775H30.423v1.921h11.59a3.652,3.652,0,0,1,3.636,3.636V35.095a10.517,10.517,0,0,1,3.3.6V11.009A1.856,1.856,0,0,0,47.1,9.161ZM21.156,8.844H23.02a.894.894,0,0,1,.894.894v9.414h4.721V9.737a.894.894,0,0,1,.894-.894h1.864L26.275,2.816,21.156,8.844ZM45.438,36.881a8.769,8.769,0,1,0,8.769,8.769A8.773,8.773,0,0,0,45.438,36.881ZM40.9,46.543a.894.894,0,1,1,0-1.788h3.641V41.115a.894.894,0,0,1,1.788,0v3.641h3.641a.894.894,0,1,1,0,1.788H46.331v3.641a.894.894,0,1,1-1.788,0V46.543Zm-8.981-15.9a2.308,2.308,0,0,1,0,4L18.463,42.408a2.308,2.308,0,0,1-3.462-2V24.868a2.308,2.308,0,0,1,3.462-2Zm-.894,1.548L17.569,24.418a.52.52,0,0,0-.78.45V40.409a.52.52,0,0,0,.78.45l13.459-7.771a.52.52,0,0,0,0-.9Z" fill-rule="evenodd"/>
      </g>
    </g>
  </g>
</svg>
