<svg xmlns="http://www.w3.org/2000/svg" xmlns:xlink="http://www.w3.org/1999/xlink" width="108" height="108" viewBox="0 0 108 108">
  <defs>
    <filter id="Rectangle_411831" x="0" y="0" width="108" height="108" filterUnits="userSpaceOnUse">
      <feOffset dy="3" input="SourceAlpha"/>
      <feGaussianBlur stdDeviation="3" result="blur"/>
      <feFlood flood-opacity="0.161"/>
      <feComposite operator="in" in2="blur"/>
      <feComposite in="SourceGraphic"/>
    </filter>
    <clipPath id="clip-path">
      <rect id="Rectangle_428153" data-name="Rectangle 428153" width="55" height="64" transform="translate(-2370 -8613)" fill="#fff" stroke="#707070" stroke-width="1" opacity="0"/>
    </clipPath>
  </defs>
  <g id="Group_1236039" data-name="Group 1236039" transform="translate(2396.056 8632.01)">
    <g id="Group_1236036" data-name="Group 1236036" transform="translate(-2387.056 -8626.01)">
      <g id="Group_1235933" data-name="Group 1235933">
        <g id="Group_1235902" data-name="Group 1235902">
          <g transform="matrix(1, 0, 0, 1, -9, -6)" filter="url(#Rectangle_411831)">
            <g id="Rectangle_411831-2" data-name="Rectangle 411831" transform="translate(9 6)" fill="#c0a6f0" stroke="#fff" stroke-width="2">
              <path d="M5,0H58A32,32,0,0,1,90,32V85a5,5,0,0,1-5,5H32A32,32,0,0,1,0,58V5A5,5,0,0,1,5,0Z" stroke="none"/>
              <path d="M5,1H58A31,31,0,0,1,89,32V85a4,4,0,0,1-4,4H32A31,31,0,0,1,1,58V5A4,4,0,0,1,5,1Z" fill="none"/>
            </g>
          </g>
        </g>
      </g>
    </g>
    <g id="Mask_Group_1099574" data-name="Mask Group 1099574" clip-path="url(#clip-path)">
      <g id="analitica_2_" data-name="analitica (2)" transform="translate(-2370.888 -8609.387)">
        <g id="Group_1236564" data-name="Group 1236564">
          <g id="Group_1236553" data-name="Group 1236553">
            <path id="Path_1263271" data-name="Path 1263271" d="M55,45.242A2.665,2.665,0,0,1,52.339,47.9h-34.6V44.355H54.113A.89.89,0,0,1,55,45.242Z" fill="#d3a06c"/>
          </g>
          <g id="Group_1236554" data-name="Group 1236554">
            <path id="Path_1263272" data-name="Path 1263272" d="M52.339,1.774A2.658,2.658,0,0,1,55,4.435a.89.89,0,0,1-.887.887H13.306a.89.89,0,0,1-.887-.887,2.665,2.665,0,0,1,2.661-2.661Z" fill="#d3a06c"/>
          </g>
          <g id="Group_1236555" data-name="Group 1236555">
            <path id="Path_1263273" data-name="Path 1263273" d="M14.194,5.323H53.226V44.355H14.194Z" fill="#f0d0b4"/>
          </g>
          <g id="Group_1236556" data-name="Group 1236556">
            <path id="Path_1263274" data-name="Path 1263274" d="M37.258,31.935v-7.1a1.779,1.779,0,0,1,1.774-1.774H47.9a1.779,1.779,0,0,1,1.774,1.774v7.1A1.779,1.779,0,0,1,47.9,33.71H39.032A1.779,1.779,0,0,1,37.258,31.935Z" fill="#e6e9ed"/>
          </g>
          <g id="Group_1236557" data-name="Group 1236557">
            <path id="Path_1263275" data-name="Path 1263275" d="M37.258,17.742v-7.1a1.779,1.779,0,0,1,1.774-1.774H47.9a1.779,1.779,0,0,1,1.774,1.774v7.1A1.779,1.779,0,0,1,47.9,19.516H39.032A1.779,1.779,0,0,1,37.258,17.742Z" fill="#e6e9ed"/>
          </g>
          <g id="Group_1236558" data-name="Group 1236558">
            <path id="Path_1263276" data-name="Path 1263276" d="M30.161,14.194v3.548a1.779,1.779,0,0,1-1.774,1.774H25.415a12.443,12.443,0,0,0-2.528-3.548,12.272,12.272,0,0,0-5.145-3.025v-2.3a1.779,1.779,0,0,1,1.774-1.774h8.871a1.779,1.779,0,0,1,1.774,1.774Z" fill="#e6e9ed"/>
          </g>
          <g id="Group_1236559" data-name="Group 1236559">
            <path id="Path_1263277" data-name="Path 1263277" d="M26.613,37.258h3.548v3.548H26.613Z" fill="#ff826e"/>
          </g>
          <g id="Group_1236560" data-name="Group 1236560">
            <path id="Path_1263278" data-name="Path 1263278" d="M15.968,40.806a1.779,1.779,0,0,1,1.774,1.774v8.871a3.548,3.548,0,1,1-7.1,0V42.581a1.779,1.779,0,0,1,1.774-1.774h3.548Z" fill="#969faa"/>
          </g>
          <g id="Group_1236561" data-name="Group 1236561">
            <path id="Path_1263279" data-name="Path 1263279" d="M16.855,36.974v2.058a1.779,1.779,0,0,1-1.774,1.774H13.306a1.779,1.779,0,0,1-1.774-1.774V36.974a12.617,12.617,0,0,0,5.323,0Z" fill="#ccd1d9"/>
          </g>
          <g id="Group_1236562" data-name="Group 1236562">
            <path id="Path_1263280" data-name="Path 1263280" d="M25.415,19.516a12.425,12.425,0,0,1-8.56,17.458,12.421,12.421,0,1,1-2.661-24.555,12.346,12.346,0,0,1,3.548.515v.009a12.272,12.272,0,0,1,5.145,3.025A12.443,12.443,0,0,1,25.415,19.516Z" fill="#fcd770"/>
          </g>
          <g id="Group_1236563" data-name="Group 1236563">
            <circle id="Ellipse_12751" data-name="Ellipse 12751" cx="8.871" cy="8.871" r="8.871" transform="translate(5.323 15.968)" fill="#69d6f4"/>
          </g>
        </g>
        <g id="Group_1236565" data-name="Group 1236565">
          <path id="Path_1263281" data-name="Path 1263281" d="M23.952,24.839A9.758,9.758,0,1,0,14.194,34.6,9.77,9.77,0,0,0,23.952,24.839Zm-17.742,0a7.984,7.984,0,1,1,7.984,7.984A7.993,7.993,0,0,1,6.21,24.839Z"/>
          <path id="Path_1263282" data-name="Path 1263282" d="M15.081,23.952h1.774v1.774H15.081Z"/>
          <path id="Path_1263283" data-name="Path 1263283" d="M11.532,23.952h1.774v1.774H11.532Z"/>
          <path id="Path_1263284" data-name="Path 1263284" d="M18.629,23.952H20.4v1.774H18.629Z"/>
          <path id="Path_1263285" data-name="Path 1263285" d="M7.984,23.952H9.758v1.774H7.984Z"/>
          <path id="Path_1263286" data-name="Path 1263286" d="M54.113,43.468V6.21a1.776,1.776,0,0,0,1.774-1.774A3.552,3.552,0,0,0,52.339.887H15.081a3.552,3.552,0,0,0-3.548,3.548A1.776,1.776,0,0,0,13.306,6.21v5.368A13.289,13.289,0,0,0,10.645,37.65v1.382a2.632,2.632,0,0,0,.356,1.3,2.656,2.656,0,0,0-1.243,2.243v8.871a4.435,4.435,0,1,0,8.871,0V48.79h33.71a3.552,3.552,0,0,0,3.548-3.548A1.776,1.776,0,0,0,54.113,43.468ZM15.081,2.661H52.339a1.777,1.777,0,0,1,1.775,1.774H13.306A1.776,1.776,0,0,1,15.081,2.661ZM52.339,6.21V43.468H18.629v-.887a2.656,2.656,0,0,0-1.243-2.243,2.632,2.632,0,0,0,.356-1.3V37.65A13.247,13.247,0,0,0,26.724,20.4h1.663a2.665,2.665,0,0,0,2.661-2.661V15.081h5.323v2.661A2.665,2.665,0,0,0,39.032,20.4h3.548v1.774H39.032a2.665,2.665,0,0,0-2.661,2.661v7.1A2.665,2.665,0,0,0,39.032,34.6H47.9a2.665,2.665,0,0,0,2.661-2.661v-7.1A2.665,2.665,0,0,0,47.9,22.177H44.355V20.4H47.9a2.665,2.665,0,0,0,2.661-2.661v-7.1A2.665,2.665,0,0,0,47.9,7.984H39.032a2.665,2.665,0,0,0-2.661,2.661v2.661H31.048V10.645a2.665,2.665,0,0,0-2.661-2.661H19.516a2.665,2.665,0,0,0-2.661,2.661V11.8a13.265,13.265,0,0,0-1.774-.224V6.21ZM23.21,15.081A13.358,13.358,0,0,0,20.8,13.306h6.7V11.532H20.4v1.547a13.211,13.211,0,0,0-1.774-.77V10.645a.888.888,0,0,1,.887-.887h8.871a.888.888,0,0,1,.887.887v7.1a.888.888,0,0,1-.887.887H25.953a13.24,13.24,0,0,0-1.14-1.774H27.5V15.081Zm15.822,3.548a.888.888,0,0,1-.887-.887v-7.1a.888.888,0,0,1,.887-.887H47.9a.888.888,0,0,1,.887.887v7.1a.888.888,0,0,1-.887.887ZM47.9,23.952a.888.888,0,0,1,.887.887v7.1a.888.888,0,0,1-.887.887H39.032a.888.888,0,0,1-.887-.887v-7.1a.888.888,0,0,1,.887-.887Zm-45.242.887A11.532,11.532,0,1,1,14.194,36.371,11.546,11.546,0,0,1,2.661,24.839ZM14.194,38.145a13.3,13.3,0,0,0,1.774-.132v1.019a.888.888,0,0,1-.887.887H13.306a.888.888,0,0,1-.887-.887V38.013A13.3,13.3,0,0,0,14.194,38.145Zm2.661,13.306a2.661,2.661,0,1,1-5.323,0V42.581a.888.888,0,0,1,.887-.887h3.548a.888.888,0,0,1,.887.887Zm35.484-4.435H18.629V45.242H54.113A1.776,1.776,0,0,1,52.339,47.016Z"/>
          <path id="Path_1263287" data-name="Path 1263287" d="M39.919,11.532h7.1v1.774h-7.1Z"/>
          <path id="Path_1263288" data-name="Path 1263288" d="M39.919,15.081h7.1v1.774h-7.1Z"/>
          <path id="Path_1263289" data-name="Path 1263289" d="M39.919,25.726h7.1V27.5h-7.1Z"/>
          <path id="Path_1263290" data-name="Path 1263290" d="M39.919,29.274h7.1v1.774h-7.1Z"/>
          <path id="Path_1263291" data-name="Path 1263291" d="M25.726,41.694h5.323V36.371H25.726ZM27.5,38.145h1.774v1.774H27.5Z"/>
          <path id="Path_1263292" data-name="Path 1263292" d="M32.823,36.371h3.548v1.774H32.823Z"/>
          <path id="Path_1263293" data-name="Path 1263293" d="M38.145,36.371H50.565v1.774H38.145Z"/>
          <path id="Path_1263294" data-name="Path 1263294" d="M32.823,39.919H50.565v1.774H32.823Z"/>
        </g>
      </g>
    </g>
  </g>
</svg>
