<svg xmlns="http://www.w3.org/2000/svg" xmlns:xlink="http://www.w3.org/1999/xlink" width="76.345" height="76.345" viewBox="0 0 76.345 76.345">
  <defs>
    <clipPath id="clip-path">
      <rect id="Rectangle_428117" data-name="Rectangle 428117" width="53" height="43" transform="translate(258.051 4480)" fill="#fff" stroke="#707070" stroke-width="1" opacity="0"/>
    </clipPath>
  </defs>
  <g id="Group_1236000" data-name="Group 1236000" transform="translate(-246.326 -4463.328)">
    <g id="Group_1235999" data-name="Group 1235999" transform="translate(-775.641 1332.848)">
      <g id="Group_1200255" data-name="Group 1200255" transform="translate(0 37.825)">
        <g id="Group_1187152" data-name="Group 1187152">
          <g id="Group_1185946" data-name="Group 1185946" transform="translate(-3.07)">
            <g id="Group_1184280" data-name="Group 1184280">
              <g id="Group_1182168" data-name="Group 1182168">
                <g id="Group_1178877" data-name="Group 1178877">
                  <g id="Group_1111311" data-name="Group 1111311">
                    <g id="Group_1098742" data-name="Group 1098742" transform="translate(1025.482 3093.101)">
                      <g id="Rectangle_400898" data-name="Rectangle 400898" transform="translate(-0.445 -0.445)" fill="#efef49" stroke="#a6a632" stroke-width="1" opacity="0.859">
                        <rect width="76.345" height="76.345" rx="38.172" stroke="none"/>
                        <rect x="0.5" y="0.5" width="75.345" height="75.345" rx="37.672" fill="none"/>
                      </g>
                      <g id="Rectangle_400907" data-name="Rectangle 400907" transform="translate(-0.446 -0.445)" fill="none" stroke="#a6a632" stroke-width="1">
                        <rect width="76.345" height="76.345" rx="38.172" stroke="none"/>
                        <rect x="0.5" y="0.5" width="75.345" height="75.345" rx="37.672" fill="none"/>
                      </g>
                    </g>
                  </g>
                </g>
              </g>
            </g>
          </g>
        </g>
      </g>
    </g>
    <g id="Mask_Group_1099572" data-name="Mask Group 1099572" clip-path="url(#clip-path)">
      <g id="venta-minorista" transform="translate(262.328 4479.307)">
        <circle id="Ellipse_12740" data-name="Ellipse 12740" cx="9.016" cy="9.016" r="9.016" transform="translate(24.968 1.387)" fill="#dae3f2"/>
        <path id="Path_1263239" data-name="Path 1263239" d="M13.039,26.666,9.155,40.609l5.826.956,1.456-14.421Z" fill="#cc7670"/>
        <path id="Path_1263240" data-name="Path 1263240" d="M25.661,25.709l-3.4.956,1.456,14.9,6.8-1.913Z" fill="#74b396"/>
        <path id="Path_1263241" data-name="Path 1263241" d="M22.263,25.709H16.437L14.981,43h8.739Z" fill="#7aa0d6"/>
        <path id="Path_1263242" data-name="Path 1263242" d="M23.157,16.272a1.235,1.235,0,0,0-1.709-.65l-2.611,1.4.048-.068L20.5,14.623a.973.973,0,0,0-.469-1.421,1,1,0,0,0-1.177.326l-1.044,1.4a.962.962,0,0,1-.192.193L12.226,19.19l-.142.091L9.2,19.449a.1.1,0,0,1-.073-.165l3.026-2.85a1.191,1.191,0,0,0-.34-2.012,1.233,1.233,0,0,0-1.114.1L6.223,17.677C4.153,19.6,3.2,22.124,2.358,24.325l-.971,2.2,5.826,1.913.463-2.082h0c.429-1.289,2.621-2.225,3.777-2.616L14.539,22.7a2.616,2.616,0,0,0,.563-.268l7.523-4.683a1.237,1.237,0,0,0,.532-1.472Z" fill="#e6c59b"/>
        <path id="Path_1263243" data-name="Path 1263243" d="M31.9,6.935l1.56,4.855h4.453l1.616-4.855Z" fill="#6d8299"/>
        <path id="Path_1263244" data-name="Path 1263244" d="M33.177,13.176a2.084,2.084,0,0,0,1.962,1.388h2.774V13.177H35.139a.7.7,0,0,1-.654-.464l-.081-.23h3.513a.694.694,0,0,0,.658-.474l1.616-4.855a.694.694,0,0,0-.658-.913H32.191l-.328-.925a.693.693,0,0,0-.654-.462H29.129V6.242H30.72ZM38.57,7.629,37.416,11.1h-3.5L32.683,7.629Z"/>
        <rect id="Rectangle_428496" data-name="Rectangle 428496" width="1.387" height="1.387" rx="0.694" transform="translate(33.984 15.258)"/>
        <rect id="Rectangle_428497" data-name="Rectangle 428497" width="1.387" height="1.387" rx="0.694" transform="translate(36.758 15.258)"/>
        <path id="Path_1263245" data-name="Path 1263245" d="M27.048,10.4h3.468V11.79H27.048Z"/>
        <path id="Path_1263246" data-name="Path 1263246" d="M29.129,13.177H31.9v1.387H29.129Z"/>
        <path id="Path_1263247" data-name="Path 1263247" d="M3.006,24.621l.026-.066a16.033,16.033,0,0,1,3.63-6.292l4.4-3.108a.54.54,0,0,1,.486-.043.5.5,0,0,1,.315.387.508.508,0,0,1-.191.477L8.649,18.826a.791.791,0,0,0-.186.886.8.8,0,0,0,.773.478l5.274-.309a1.986,1.986,0,0,0,.979-.223l4.354-2.338a1.225,1.225,0,0,1,.736.929l-5.848,3.64a1.941,1.941,0,0,1-.414.2l-3.085,1.042c-1.345.454-3.681,1.455-4.213,3.054a.591.591,0,0,0-.02.069l-.463,2.082,1.355.3.454-2.042c.263-.712,1.564-1.552,3.331-2.149l2.382-.8L13.288,26l-.152-.021a.69.69,0,0,0-.765.5L8.487,40.422a.693.693,0,0,0,.555.871l5.312.872-.065.776a.693.693,0,0,0,.691.752h8.739a.693.693,0,0,0,.691-.752l-.07-.831L30.7,40.319a.693.693,0,0,0,.467-.9L26.316,25.481a.694.694,0,0,0-.843-.44l-.606.171-1.3-7.372-.013,0a1.87,1.87,0,0,0,.246-1.776,1.9,1.9,0,0,0-1.1-1.1,1.946,1.946,0,0,0-1.577.089l-.074.04.041-.06a1.667,1.667,0,0,0-.8-2.432,1.7,1.7,0,0,0-1.993.555l-1.042,1.4a.27.27,0,0,1-.056.057l-5.343,4.03-1.06.062,1.806-1.7a1.884,1.884,0,0,0-.533-3.181A1.951,1.951,0,0,0,10.295,14c-4.52,3.19-4.52,3.19-4.545,3.216a17.054,17.054,0,0,0-4.014,6.842L.753,26.29l1.269.561Zm15.1.394V21.425l2.5-1.554v5.145Zm-2.337-2.136.95-.591v2.727h-.277a.693.693,0,0,0-.691.635l-.058.687L14.683,26.2Zm-5.734,17.17,3.513-12.612,2.028.285-1.1,13.056Zm5.7,2.257,1.34-15.9h4.551l1.34,15.9Zm13.884-3.123-5.4,1.52L23.08,27.156l2.141-.6ZM23.757,25.525l-.795.224-.008-.1a.693.693,0,0,0-.691-.635h-.277V19.007l.344-.214,1.193,6.774ZM22.2,16.267a.533.533,0,0,1,.307.308.544.544,0,0,1-.253.629l-.46.286a2.607,2.607,0,0,0-.595-.9l.558-.3A.552.552,0,0,1,22.2,16.267Zm-4.169-.542a1.688,1.688,0,0,0,.331-.332l1.044-1.4a.312.312,0,0,1,.362-.1.285.285,0,0,1,.169.178.26.26,0,0,1-.012.2l-1.565,2.263-3.515,1.888a.644.644,0,0,1-.358.067l-.138.008Z"/>
        <path id="Path_1263248" data-name="Path 1263248" d="M33.984,20.113a9.71,9.71,0,1,0-9.71-9.71,9.71,9.71,0,0,0,9.71,9.71Zm0-18.032A8.323,8.323,0,1,1,25.661,10.4a8.323,8.323,0,0,1,8.323-8.323Z"/>
      </g>
    </g>
  </g>
</svg>
