<svg xmlns="http://www.w3.org/2000/svg" xmlns:xlink="http://www.w3.org/1999/xlink" width="76.345" height="76.345" viewBox="0 0 76.345 76.345">
  <defs>
    <clipPath id="clip-path">
      <rect id="Rectangle_428117" data-name="Rectangle 428117" width="53" height="43" transform="translate(258.051 4480)" fill="#fff" stroke="#707070" stroke-width="1" opacity="0"/>
    </clipPath>
  </defs>
  <g id="Group_1236337" data-name="Group 1236337" transform="translate(-246.326 -4463.328)">
    <g id="Group_1235999" data-name="Group 1235999" transform="translate(-775.641 1332.848)">
      <g id="Group_1200255" data-name="Group 1200255" transform="translate(0 37.825)">
        <g id="Group_1187152" data-name="Group 1187152">
          <g id="Group_1185946" data-name="Group 1185946" transform="translate(-3.07)">
            <g id="Group_1184280" data-name="Group 1184280">
              <g id="Group_1182168" data-name="Group 1182168">
                <g id="Group_1178877" data-name="Group 1178877">
                  <g id="Group_1111311" data-name="Group 1111311">
                    <g id="Group_1098742" data-name="Group 1098742" transform="translate(1025.482 3093.101)">
                      <g id="Rectangle_400898" data-name="Rectangle 400898" transform="translate(-0.445 -0.445)" fill="#efef49" stroke="#a6a632" stroke-width="1" opacity="0.859">
                        <rect width="76.345" height="76.345" rx="38.172" stroke="none"/>
                        <rect x="0.5" y="0.5" width="75.345" height="75.345" rx="37.672" fill="none"/>
                      </g>
                      <g id="Rectangle_400907" data-name="Rectangle 400907" transform="translate(-0.446 -0.445)" fill="none" stroke="#a6a632" stroke-width="1">
                        <rect width="76.345" height="76.345" rx="38.172" stroke="none"/>
                        <rect x="0.5" y="0.5" width="75.345" height="75.345" rx="37.672" fill="none"/>
                      </g>
                    </g>
                  </g>
                </g>
              </g>
            </g>
          </g>
        </g>
      </g>
    </g>
    <g id="Mask_Group_1099577" data-name="Mask Group 1099577" clip-path="url(#clip-path)">
      <g id="dinero" transform="translate(263.051 4480)">
        <path id="Path_1263315" data-name="Path 1263315" d="M41.943,23.967l-2.82,2.82-7.775,5.618L29.973,31.03,30,31a3.877,3.877,0,1,0-4.258-4.208l-.007.007L23.262,24.32,32.779,14.8Z" fill="#03aa6f"/>
        <path id="Path_1263316" data-name="Path 1263316" d="M41.943,29.606,27.14,42.3H22.91L9.517,37.361H.353V29.606H9.517l.493-.211,3.031-1.3,1.41-.606H25.73v4.23H17.271l9.164,4.229L31.348,32.4l7.775-5.618Z" fill="#f5d0c7"/>
        <path id="Path_1263317" data-name="Path 1263317" d="M33.484,27.139A3.872,3.872,0,0,1,30,31l-.028.035-3.891-3.891-.345-.345.007-.007a3.877,3.877,0,0,1,7.74.352Z" fill="#79dca0"/>
        <path id="Path_1263318" data-name="Path 1263318" d="M31.348,32.4l-4.913,3.546-9.164-4.229H25.73v-4.23l.352-.352,3.891,3.891Z" fill="#03aa6f"/>
        <path id="Path_1263319" data-name="Path 1263319" d="M23.615,13.041a2.338,2.338,0,0,0,1.494-.515,1.632,1.632,0,0,0,.62-1.248,1.057,1.057,0,0,0-.782-.966l-1.332-.444V6.7a2.338,2.338,0,0,0-1.494.515,1.632,1.632,0,0,0-.62,1.248,1.057,1.057,0,0,0,.782.966l1.332.444Zm0-9.516a6.344,6.344,0,1,1-6.344,6.344A6.344,6.344,0,0,1,23.615,3.524Z" fill="#ffdb6f"/>
        <path id="Path_1263320" data-name="Path 1263320" d="M26.082,27.139l-.352.352H21.444a4.23,4.23,0,0,0-8.4.606l-3.031,1.3L3.877,23.262,13.041,14.1,23.262,24.32l2.474,2.474Z" fill="#03aa6f"/>
        <g id="Group_1236573" data-name="Group 1236573">
          <path id="Path_1263321" data-name="Path 1263321" d="M25.73,11.279a1.632,1.632,0,0,1-.62,1.248,2.338,2.338,0,0,1-1.494.515V9.869l1.332.444A1.057,1.057,0,0,1,25.73,11.279Z" fill="#ffdb6f"/>
          <path id="Path_1263322" data-name="Path 1263322" d="M23.615,6.7V9.869l-1.332-.444a1.057,1.057,0,0,1-.782-.966,1.632,1.632,0,0,1,.62-1.248A2.34,2.34,0,0,1,23.615,6.7Z" fill="#ffdb6f"/>
        </g>
        <path id="Path_1263323" data-name="Path 1263323" d="M21.444,27.492H14.451l-1.41.606a4.23,4.23,0,0,1,8.4-.606Z" fill="#79dca0"/>
        <g id="Group_1236574" data-name="Group 1236574">
          <path id="Path_1263324" data-name="Path 1263324" d="M28.168,2.743a8.576,8.576,0,0,0-9.106,0L18.3,1.557a9.853,9.853,0,0,1,10.632,0Z" fill="#ffdb6f"/>
          <path id="Path_1263325" data-name="Path 1263325" d="M14.5,13.664a9.851,9.851,0,0,1-.758-3.8h1.41a8.424,8.424,0,0,0,.651,3.254Z" fill="#ffdb6f"/>
          <path id="Path_1263326" data-name="Path 1263326" d="M23.615,19.738v-1.41a8.424,8.424,0,0,0,3.254-.651l.541,1.3A9.849,9.849,0,0,1,23.615,19.738Z" fill="#ffdb6f"/>
          <path id="Path_1263327" data-name="Path 1263327" d="M32.725,13.664l-1.3-.541a8.426,8.426,0,0,0,.651-3.254h1.41A9.852,9.852,0,0,1,32.725,13.664Z" fill="#ffdb6f"/>
        </g>
        <g id="Group_1236575" data-name="Group 1236575">
          <path id="Path_1263328" data-name="Path 1263328" d="M23.615,16.918a7.049,7.049,0,1,1,7.049-7.049A7.049,7.049,0,0,1,23.615,16.918Zm0-12.689a5.639,5.639,0,1,0,5.639,5.639A5.64,5.64,0,0,0,23.615,4.229Z" fill="#ff8030"/>
          <path id="Path_1263329" data-name="Path 1263329" d="M23.615,13.746a3.036,3.036,0,0,1-1.946-.678,2.342,2.342,0,0,1-.873-1.789h1.41a.927.927,0,0,0,.367.7,1.788,1.788,0,0,0,2.086,0,.927.927,0,0,0,.367-.7c0-.1-.1-.232-.3-.3l-2.667-.89A1.762,1.762,0,0,1,20.8,8.459a2.342,2.342,0,0,1,.874-1.789,3.034,3.034,0,0,1,1.946-.678,2.664,2.664,0,0,1,2.82,2.467h-1.41c0-.573-.646-1.057-1.41-1.057a1.643,1.643,0,0,0-1.043.352.927.927,0,0,0-.367.7c0,.1.1.232.3.3l2.667.89a1.762,1.762,0,0,1,1.265,1.634,2.342,2.342,0,0,1-.874,1.789A3.033,3.033,0,0,1,23.615,13.746Z" fill="#ff8030"/>
          <rect id="Rectangle_428501" data-name="Rectangle 428501" width="1.41" height="8.459" transform="translate(22.91 5.639)" fill="#ff8030"/>
        </g>
        <path id="Path_1263330" data-name="Path 1263330" d="M19.061,2.743a8.578,8.578,0,0,1,9.105,0l.761-1.187a9.853,9.853,0,0,0-10.628,0Z"/>
        <path id="Path_1263331" data-name="Path 1263331" d="M13.746,9.869a9.8,9.8,0,0,0,.76,3.8l1.3-.544a8.4,8.4,0,0,1-.651-3.255h-1.41Z"/>
        <path id="Path_1263332" data-name="Path 1263332" d="M23.615,19.738a9.779,9.779,0,0,0,3.8-.759l-.546-1.3a8.368,8.368,0,0,1-3.251.651v1.41Z"/>
        <path id="Path_1263333" data-name="Path 1263333" d="M32.725,13.665a9.793,9.793,0,0,0,.759-3.8h-1.41a8.378,8.378,0,0,1-.651,3.252Z"/>
        <path id="Path_1263334" data-name="Path 1263334" d="M30.664,9.869a7.049,7.049,0,1,0-7.049,7.049A7.049,7.049,0,0,0,30.664,9.869Zm-7.049,5.639a5.639,5.639,0,1,1,5.639-5.639A5.64,5.64,0,0,1,23.615,15.508Z"/>
        <path id="Path_1263335" data-name="Path 1263335" d="M25.025,8.459h1.41a2.552,2.552,0,0,0-2.115-2.38v-.44H22.91v.44A2.552,2.552,0,0,0,20.8,8.459a1.771,1.771,0,0,0,1.269,1.635l.846.282v1.807a1.057,1.057,0,0,1-.7-.9H20.8a2.552,2.552,0,0,0,2.115,2.38v.44h1.41v-.44a2.552,2.552,0,0,0,2.115-2.38,1.771,1.771,0,0,0-1.269-1.635l-.846-.282V7.553A1.057,1.057,0,0,1,25.025,8.459Zm-.3,2.522c.178.06.3.183.3.3a1.057,1.057,0,0,1-.7.906V10.845ZM22.508,8.757c-.178-.06-.3-.183-.3-.3a1.057,1.057,0,0,1,.7-.906V8.892Z"/>
        <path id="Path_1263336" data-name="Path 1263336" d="M33.277,14.3a.705.705,0,0,0-1,0l-9.018,9.018L13.54,13.6a.705.705,0,0,0-1,0L3.379,22.764a.705.705,0,0,0,0,1L8.52,28.9H.353v1.41H9.517a.7.7,0,0,0,.278-.057L14.6,28.2H25.025v2.82H17.271a.7.7,0,0,0-.3,1.345l9.164,4.23a.7.7,0,0,0,.7-.07l12.209-8.81,1.856,1.856L26.879,41.59H23.036L9.76,36.7a.7.7,0,0,0-.244-.044H.353v1.41H9.39l13.276,4.891A.7.7,0,0,0,22.91,43h4.23a.7.7,0,0,0,.458-.17L42.4,30.142a.705.705,0,0,0,.077-.994l-.037-.039L40.12,26.787l2.321-2.321a.705.705,0,0,0,0-1Zm-20.236.79L24.733,26.787H22a4.913,4.913,0,0,0-4.726-3.525,4.966,4.966,0,0,0-4.9,4.354l-2.2.943-5.3-5.3Zm17.144,15.15L26.5,26.561a3.164,3.164,0,1,1,3.684,3.684Zm1.967.7-.732.529-.091-.091a4.555,4.555,0,0,0,.823-.436Zm-17.7-4.163a.7.7,0,0,0-.278.057l-.171.07a3.5,3.5,0,0,1,6.489-.128Zm11.905,8.351L20.48,32.426h5.25a.705.705,0,0,0,.7-.7V28.488l3.828,3.828Zm12.309-8.89-6.212,4.487a4.582,4.582,0,1,0-7.1-5.316l-1.1-1.1,8.52-8.52,8.167,8.167Z"/>
      </g>
    </g>
  </g>
</svg>
