<svg xmlns="http://www.w3.org/2000/svg" xmlns:xlink="http://www.w3.org/1999/xlink" width="108" height="108" viewBox="0 0 108 108">
  <defs>
    <filter id="Rectangle_411831" x="0" y="0" width="108" height="108" filterUnits="userSpaceOnUse">
      <feOffset dy="3" input="SourceAlpha"/>
      <feGaussianBlur stdDeviation="3" result="blur"/>
      <feFlood flood-opacity="0.161"/>
      <feComposite operator="in" in2="blur"/>
      <feComposite in="SourceGraphic"/>
    </filter>
    <clipPath id="clip-path">
      <rect id="Rectangle_428153" data-name="Rectangle 428153" width="55" height="64" transform="translate(-2370 -8613)" fill="#fff" stroke="#707070" stroke-width="1" opacity="0"/>
    </clipPath>
  </defs>
  <g id="Group_1236040" data-name="Group 1236040" transform="translate(2396.057 8632.01)">
    <g id="Group_1236036" data-name="Group 1236036" transform="translate(-2387.056 -8626.01)">
      <g id="Group_1235933" data-name="Group 1235933">
        <g id="Group_1235902" data-name="Group 1235902">
          <g transform="matrix(1, 0, 0, 1, -9, -6)" filter="url(#Rectangle_411831)">
            <g id="Rectangle_411831-2" data-name="Rectangle 411831" transform="translate(9 6)" fill="#c0a6f0" stroke="#fff" stroke-width="2">
              <path d="M5,0H58A32,32,0,0,1,90,32V85a5,5,0,0,1-5,5H32A32,32,0,0,1,0,58V5A5,5,0,0,1,5,0Z" stroke="none"/>
              <path d="M5,1H58A31,31,0,0,1,89,32V85a4,4,0,0,1-4,4H32A31,31,0,0,1,1,58V5A4,4,0,0,1,5,1Z" fill="none"/>
            </g>
          </g>
        </g>
      </g>
    </g>
    <g id="Mask_Group_1099575" data-name="Mask Group 1099575" clip-path="url(#clip-path)">
      <g id="sem" transform="translate(-2370.017 -8608.517)">
        <path id="Path_1263295" data-name="Path 1263295" d="M51.46,53.76,34.826,37.126,37.1,34.847,53.739,51.481A1.611,1.611,0,0,1,51.46,53.76Z" fill="#eef5f6"/>
        <path id="Path_1263296" data-name="Path 1263296" d="M42.137,39.7l-2.457,2.457a1.386,1.386,0,0,1-1.96,0L35.966,40.4l4.417-4.417,1.754,1.754A1.386,1.386,0,0,1,42.137,39.7Z" fill="#fe646f"/>
        <path id="Path_1263297" data-name="Path 1263297" d="M52.436,50.124,50.1,52.457a.405.405,0,0,1-.573,0L43.2,46.122a.405.405,0,0,1,0-.573l2.333-2.333a.405.405,0,0,1,.573,0l6.335,6.335A.405.405,0,0,1,52.436,50.124Z" fill="#fe646f"/>
        <circle id="Ellipse_12752" data-name="Ellipse 12752" cx="22.128" cy="22.128" r="22.128" transform="translate(0.825 0.846)" fill="#918291"/>
        <path id="Path_1263298" data-name="Path 1263298" d="M22.953.846q-.813,0-1.611.059a22.128,22.128,0,0,1,0,44.138q.8.058,1.611.059a22.128,22.128,0,1,0,0-44.255Z" fill="#7a6d79"/>
        <circle id="Ellipse_12753" data-name="Ellipse 12753" cx="18.905" cy="18.905" r="18.905" transform="translate(4.047 4.069)" fill="#c8effe"/>
        <path id="Path_1263299" data-name="Path 1263299" d="M22.953,4.069c-.543,0-1.08.024-1.611.069a18.9,18.9,0,0,1,0,37.672c.531.045,1.068.069,1.611.069a18.905,18.905,0,0,0,0-37.81Z" fill="#99e6fc"/>
        <path id="Path_1263300" data-name="Path 1263300" d="M54.211,10.581V25.562A7.441,7.441,0,0,1,46.77,33H31.542a.389.389,0,0,0-.353.221C29.613,36.581,26,37.858,24.25,38.291a.153.153,0,0,1-.129-.271c1.459-1.092,1.816-3.145,1.867-4.612A.393.393,0,0,0,25.6,33H22.337a7.441,7.441,0,0,1-7.44-7.44V10.581a7.441,7.441,0,0,1,7.44-7.44H46.77a7.441,7.441,0,0,1,7.44,7.44Z" fill="#eef5f6"/>
        <g id="Group_1236566" data-name="Group 1236566">
          <path id="Path_1263301" data-name="Path 1263301" d="M46.77,3.14H43.548a7.441,7.441,0,0,1,7.44,7.44V25.562A7.441,7.441,0,0,1,43.548,33H46.77a7.441,7.441,0,0,0,7.44-7.44V10.581A7.441,7.441,0,0,0,46.77,3.14Z" fill="#deecf1"/>
        </g>
        <g id="Group_1236567" data-name="Group 1236567">
          <path id="Path_1263302" data-name="Path 1263302" d="M46.77,33.808a8.255,8.255,0,0,0,8.246-8.246V10.581A8.255,8.255,0,0,0,46.77,2.335H41.8a.806.806,0,0,0,0,1.611H46.77a6.642,6.642,0,0,1,6.635,6.635V25.562A6.642,6.642,0,0,1,46.77,32.2H31.542a1.2,1.2,0,0,0-1.082.684,8.312,8.312,0,0,1-4.4,3.959,8.815,8.815,0,0,0,.738-3.4A1.2,1.2,0,0,0,25.6,32.2H22.337A6.642,6.642,0,0,1,15.7,25.562V10.581a6.642,6.642,0,0,1,6.635-6.635H38.05a.806.806,0,0,0,0-1.611h-5.1C18.152-5.158-.257,6.362.02,22.974c-.157,18.37,21.23,29.465,36.131,18.754l1,1a2.191,2.191,0,0,0,2.542.4l2.585,2.585a1.208,1.208,0,0,0,.348.975l6.335,6.335a1.206,1.206,0,0,0,.975.348l.955.955a2.417,2.417,0,1,0,3.418-3.418l-.955-.955a1.208,1.208,0,0,0-.348-.975L46.67,42.647A1.209,1.209,0,0,0,45.7,42.3L43.11,39.714a2.2,2.2,0,0,0-.4-2.542l-1-1a22.962,22.962,0,0,0,1.458-2.365h3.6ZM42.048,40.93l2.313,2.313-1.139,1.139L40.909,42.07ZM53.169,53.19a.809.809,0,0,1-1.139,0l-.761-.761,1.139-1.139.761.761A.809.809,0,0,1,53.169,53.19Zm-1.586-3.353L49.816,51.6l-5.768-5.768,1.766-1.766ZM41.568,38.311a.581.581,0,0,1,0,.821l-2.457,2.457a.582.582,0,0,1-.821,0l-.844-.844a23.029,23.029,0,0,0,3.278-3.277ZM22.953,44.3A21.346,21.346,0,0,1,1.631,22.974c-.2-13.739,13.488-24.255,26.7-20.639h-6A8.2,8.2,0,0,0,17.22,4.122,19.73,19.73,0,0,0,12.793,39.86a.806.806,0,0,0,.833-1.379C1.363,31.187,2.227,12.694,15.077,6.674a8.2,8.2,0,0,0-.986,3.907V25.562a8.255,8.255,0,0,0,8.246,8.246H25.16a4.864,4.864,0,0,1-1.521,3.568.958.958,0,0,0,.805,1.7c2.02-.5,5.617-1.847,7.356-5.265h5.641a18.138,18.138,0,0,1-20.565,6.216.806.806,0,0,0-.542,1.517,19.752,19.752,0,0,0,23.075-7.734h1.912A21.249,21.249,0,0,1,22.953,44.3Z"/>
          <path id="Path_1263303" data-name="Path 1263303" d="M38.225,13.742l-1.515,8.4a.806.806,0,0,0,1.586.286l1.057-5.857,1.734,5.876A1,1,0,0,0,43,22.434l1.674-5.873,1.122,5.87a.806.806,0,1,0,1.582-.3l-1.607-8.408a1,1,0,0,0-1.932-.109c-.014.007-1.8,6.332-1.81,6.347-.014-.041-1.863-6.322-1.876-6.356a1,1,0,0,0-1.932.139Z"/>
          <path id="Path_1263304" data-name="Path 1263304" d="M35.037,14.611a.806.806,0,0,0,0-1.611h-3.6a.806.806,0,0,0-.806.806v8.543a.806.806,0,0,0,.806.806h3.6a.806.806,0,0,0,0-1.611H32.243v-2.66h2.529a.806.806,0,0,0,0-1.611H32.243v-2.66h2.794Z"/>
          <path id="Path_1263305" data-name="Path 1263305" d="M25.521,21.542a3.276,3.276,0,0,1-2.407-1.013.806.806,0,1,0-1.194,1.082,4.912,4.912,0,0,0,3.6,1.543,3.327,3.327,0,0,0,3.36-2.532c.2-1.094-.315-2.527-2.333-3.272-1.1-.407-2.127-.851-2.392-.968a1.011,1.011,0,0,1,.535-1.748,3.147,3.147,0,0,1,2.624.6A.806.806,0,0,0,28.349,14a4.737,4.737,0,0,0-4.122-.906,2.764,2.764,0,0,0-2.007,2.226,2.47,2.47,0,0,0,1.1,2.446c.211.117,1.2.548,2.669,1.1.935.345,1.41.883,1.3,1.477A1.727,1.727,0,0,1,25.521,21.542Z"/>
        </g>
      </g>
    </g>
  </g>
</svg>
