<svg xmlns="http://www.w3.org/2000/svg" xmlns:xlink="http://www.w3.org/1999/xlink" width="108" height="108" viewBox="0 0 108 108">
  <defs>
    <filter id="Rectangle_411831" x="0" y="0" width="108" height="108" filterUnits="userSpaceOnUse">
      <feOffset dy="3" input="SourceAlpha"/>
      <feGaussianBlur stdDeviation="3" result="blur"/>
      <feFlood flood-opacity="0.161"/>
      <feComposite operator="in" in2="blur"/>
      <feComposite in="SourceGraphic"/>
    </filter>
    <clipPath id="clip-path">
      <rect id="Rectangle_428153" data-name="Rectangle 428153" width="55" height="64" transform="translate(-2370 -8613)" fill="#fff" stroke="#707070" stroke-width="1" opacity="0"/>
    </clipPath>
  </defs>
  <g id="Group_1236038" data-name="Group 1236038" transform="translate(2396.056 8632.01)">
    <g id="Group_1236036" data-name="Group 1236036" transform="translate(-2387.056 -8626.01)">
      <g id="Group_1235933" data-name="Group 1235933">
        <g id="Group_1235902" data-name="Group 1235902">
          <g transform="matrix(1, 0, 0, 1, -9, -6)" filter="url(#Rectangle_411831)">
            <g id="Rectangle_411831-2" data-name="Rectangle 411831" transform="translate(9 6)" fill="#c0a6f0" stroke="#fff" stroke-width="2">
              <path d="M5,0H58A32,32,0,0,1,90,32V85a5,5,0,0,1-5,5H32A32,32,0,0,1,0,58V5A5,5,0,0,1,5,0Z" stroke="none"/>
              <path d="M5,1H58A31,31,0,0,1,89,32V85a4,4,0,0,1-4,4H32A31,31,0,0,1,1,58V5A4,4,0,0,1,5,1Z" fill="none"/>
            </g>
          </g>
        </g>
      </g>
    </g>
    <g id="Mask_Group_1099573" data-name="Mask Group 1099573" clip-path="url(#clip-path)">
      <g id="asistente-de-ai" transform="translate(-2370 -8608.494)">
        <g id="Group_1236547" data-name="Group 1236547">
          <path id="Path_1263249" data-name="Path 1263249" d="M41.768,53.437H3.6A2.794,2.794,0,0,1,.809,50.643V41.989a6.5,6.5,0,0,1,6.5-6.5H35.265a6.5,6.5,0,0,1,6.5,6.5V53.437Z" fill="#fee97d"/>
          <rect id="Rectangle_428498" data-name="Rectangle 428498" width="7.895" height="5.101" transform="translate(17.341 30.385)" fill="#ffe5c2"/>
          <rect id="Rectangle_428499" data-name="Rectangle 428499" width="2.921" height="5.101" transform="translate(22.315 30.385)" fill="#fed2a4"/>
          <path id="Path_1263250" data-name="Path 1263250" d="M21.288,35.486l-5.245,4.468a1.438,1.438,0,0,1-2.23-.474L11.9,35.486Z" fill="#d9b1ee"/>
          <path id="Path_1263251" data-name="Path 1263251" d="M21.288,35.486l5.245,4.468a1.438,1.438,0,0,0,2.23-.474l1.911-3.994Z" fill="#cb97e7"/>
          <path id="Path_1263252" data-name="Path 1263252" d="M47.806,53.437H24.459L28.422,37.9a3.2,3.2,0,0,1,3.1-2.412H51.651A2.529,2.529,0,0,1,54.1,38.64L50.95,50.994A3.245,3.245,0,0,1,47.806,53.437Z" fill="#8d9ca8"/>
          <path id="Path_1263253" data-name="Path 1263253" d="M54.1,38.64,50.95,50.994a3.245,3.245,0,0,1-3.144,2.443H43.49a3.244,3.244,0,0,0,3.144-2.443L49.786,38.64a2.529,2.529,0,0,0-2.45-3.154h4.316A2.529,2.529,0,0,1,54.1,38.64Z" fill="#7a8c98"/>
          <path id="Path_1263254" data-name="Path 1263254" d="M24.459,53.437H15.145a2.083,2.083,0,0,1-2.083-2.083h0a2.083,2.083,0,0,1,2.083-2.083H25.521Z" fill="#7a8c98"/>
          <circle id="Ellipse_12741" data-name="Ellipse 12741" cx="2.24" cy="2.24" r="2.24" transform="translate(38.134 42.349)" fill="#d8ecfe"/>
          <path id="Path_1263255" data-name="Path 1263255" d="M28.183,30.385H14.393a3.411,3.411,0,0,1-3.411-3.411V12.644a3.411,3.411,0,0,1,3.411-3.411H28.183a3.411,3.411,0,0,1,3.411,3.411v14.33A3.411,3.411,0,0,1,28.183,30.385Z" fill="#d9b1ee"/>
          <path id="Path_1263256" data-name="Path 1263256" d="M31.595,12.645V26.973a3.411,3.411,0,0,1-3.412,3.412H23.4a3.342,3.342,0,0,0,3.364-3.412V12.645A3.342,3.342,0,0,0,23.4,9.233h4.78A3.411,3.411,0,0,1,31.595,12.645Z" fill="#cb97e7"/>
          <circle id="Ellipse_12742" data-name="Ellipse 12742" cx="1.664" cy="1.664" r="1.664" transform="translate(40.215 28.264)" fill="#60b7ff"/>
          <circle id="Ellipse_12743" data-name="Ellipse 12743" cx="1.664" cy="1.664" r="1.664" transform="translate(0.808 18.145)" fill="#60b7ff"/>
          <circle id="Ellipse_12744" data-name="Ellipse 12744" cx="1.664" cy="1.664" r="1.664" transform="translate(1.762 7.848)" fill="#60b7ff"/>
          <circle id="Ellipse_12745" data-name="Ellipse 12745" cx="1.664" cy="1.664" r="1.664" transform="translate(1.762 28.264)" fill="#60b7ff"/>
          <path id="Path_1263257" data-name="Path 1263257" d="M45.584,1.552c-4.748,0-8.6,3.363-8.6,7.512A7.568,7.568,0,0,0,42.2,15.972l-.716,2.089a.471.471,0,0,0,.687.557l3.411-2.042c4.748,0,8.6-3.363,8.6-7.512S50.332,1.552,45.584,1.552Z" fill="#d8ecfe"/>
          <path id="Path_1263258" data-name="Path 1263258" d="M54.181,9.064c0,4.149-3.849,7.512-8.6,7.512l-3.411,2.042a.471.471,0,0,1-.687-.557l.538-1.571c4.115-.545,7.2-3.638,7.2-7.4a7.707,7.707,0,0,0-6.085-7.232,9.786,9.786,0,0,1,2.442-.307C50.332,1.552,54.181,4.915,54.181,9.064Z" fill="#c4e2ff"/>
        </g>
        <g id="Group_1236552" data-name="Group 1236552">
          <path id="Path_1263259" data-name="Path 1263259" d="M8.121,35.486H7.311a6.5,6.5,0,0,0-6.5,6.5v8.654A2.794,2.794,0,0,0,3.6,53.437H41.767" fill="none" stroke="#000" stroke-linecap="round" stroke-linejoin="round" stroke-miterlimit="10" stroke-width="1.616"/>
          <path id="Path_1263260" data-name="Path 1263260" d="M35.265,35.486H11.9" fill="none" stroke="#000" stroke-linecap="round" stroke-linejoin="round" stroke-miterlimit="10" stroke-width="1.616"/>
          <rect id="Rectangle_428500" data-name="Rectangle 428500" width="7.895" height="5.101" transform="translate(17.341 30.385)" fill="none" stroke="#000" stroke-linecap="round" stroke-linejoin="round" stroke-miterlimit="10" stroke-width="1.616"/>
          <path id="Path_1263261" data-name="Path 1263261" d="M21.288,35.486l-5.245,4.468a1.438,1.438,0,0,1-2.23-.474L11.9,35.486Z" fill="none" stroke="#000" stroke-linecap="round" stroke-linejoin="round" stroke-miterlimit="10" stroke-width="1.616"/>
          <path id="Path_1263262" data-name="Path 1263262" d="M30.609,35.621l.065-.135H21.288l5.246,4.468a1.428,1.428,0,0,0,1.289.3" fill="none" stroke="#000" stroke-linecap="round" stroke-linejoin="round" stroke-miterlimit="10" stroke-width="1.616"/>
          <path id="Path_1263263" data-name="Path 1263263" d="M47.806,53.437H24.459L28.422,37.9a3.2,3.2,0,0,1,3.1-2.412H51.651A2.529,2.529,0,0,1,54.1,38.64L50.95,50.994A3.245,3.245,0,0,1,47.806,53.437Z" fill="none" stroke="#000" stroke-linecap="round" stroke-linejoin="round" stroke-miterlimit="10" stroke-width="1.616"/>
          <path id="Path_1263264" data-name="Path 1263264" d="M24.459,53.437H15.145a2.083,2.083,0,0,1-2.083-2.083h0a2.083,2.083,0,0,1,2.083-2.083H25.521Z" fill="none" stroke="#000" stroke-linecap="round" stroke-linejoin="round" stroke-miterlimit="10" stroke-width="1.616"/>
          <circle id="Ellipse_12746" data-name="Ellipse 12746" cx="2.24" cy="2.24" r="2.24" transform="translate(38.134 42.349)" fill="none" stroke="#000" stroke-linecap="round" stroke-linejoin="round" stroke-miterlimit="10" stroke-width="1.616"/>
          <path id="Path_1263265" data-name="Path 1263265" d="M28.183,30.385H14.393a3.411,3.411,0,0,1-3.411-3.411V12.644a3.411,3.411,0,0,1,3.411-3.411H28.183a3.411,3.411,0,0,1,3.411,3.411v14.33A3.411,3.411,0,0,1,28.183,30.385Z" fill="none" stroke="#000" stroke-linecap="round" stroke-linejoin="round" stroke-miterlimit="10" stroke-width="1.616"/>
          <g id="Group_1236550" data-name="Group 1236550">
            <g id="Group_1236548" data-name="Group 1236548">
              <path id="Path_1263266" data-name="Path 1263266" d="M15.277,24.443l3.48-9.137a.21.21,0,0,1,.389,0l3.448,9.137" fill="none" stroke="#000" stroke-linecap="round" stroke-linejoin="round" stroke-miterlimit="10" stroke-width="1.616"/>
              <line id="Line_660" data-name="Line 660" x2="5.164" transform="translate(16.363 22.167)" fill="none" stroke="#000" stroke-linecap="round" stroke-linejoin="round" stroke-miterlimit="10" stroke-width="1.616"/>
            </g>
            <g id="Group_1236549" data-name="Group 1236549">
              <line id="Line_661" data-name="Line 661" y2="9.267" transform="translate(25.958 15.175)" fill="none" stroke="#000" stroke-linecap="round" stroke-linejoin="round" stroke-miterlimit="10" stroke-width="1.616"/>
            </g>
          </g>
          <path id="Path_1263267" data-name="Path 1263267" d="M31.595,25.1h5.612a1.56,1.56,0,0,1,1.191.552l2.5,2.954" fill="none" stroke="#000" stroke-linecap="round" stroke-linejoin="round" stroke-miterlimit="10" stroke-width="1.616"/>
          <circle id="Ellipse_12747" data-name="Ellipse 12747" cx="1.664" cy="1.664" r="1.664" transform="translate(40.215 28.264)" fill="none" stroke="#000" stroke-linecap="round" stroke-linejoin="round" stroke-miterlimit="10" stroke-width="1.616"/>
          <path id="Path_1263268" data-name="Path 1263268" d="M10.981,14.34H8.1a1.56,1.56,0,0,1-1.191-.552l-2.5-2.954" fill="none" stroke="#000" stroke-linecap="round" stroke-linejoin="round" stroke-miterlimit="10" stroke-width="1.616"/>
          <line id="Line_662" data-name="Line 662" x1="6.846" transform="translate(4.136 19.809)" fill="none" stroke="#000" stroke-linecap="round" stroke-linejoin="round" stroke-miterlimit="10" stroke-width="1.616"/>
          <circle id="Ellipse_12748" data-name="Ellipse 12748" cx="1.664" cy="1.664" r="1.664" transform="translate(0.808 18.145)" fill="none" stroke="#000" stroke-linecap="round" stroke-linejoin="round" stroke-miterlimit="10" stroke-width="1.616"/>
          <circle id="Ellipse_12749" data-name="Ellipse 12749" cx="1.664" cy="1.664" r="1.664" transform="translate(1.762 7.848)" fill="none" stroke="#000" stroke-linecap="round" stroke-linejoin="round" stroke-miterlimit="10" stroke-width="1.616"/>
          <path id="Path_1263269" data-name="Path 1263269" d="M10.981,25.1H8.1a1.56,1.56,0,0,0-1.191.552l-2.5,2.954" fill="none" stroke="#000" stroke-linecap="round" stroke-linejoin="round" stroke-miterlimit="10" stroke-width="1.616"/>
          <circle id="Ellipse_12750" data-name="Ellipse 12750" cx="1.664" cy="1.664" r="1.664" transform="translate(1.762 28.264)" fill="none" stroke="#000" stroke-linecap="round" stroke-linejoin="round" stroke-miterlimit="10" stroke-width="1.616"/>
          <g id="Group_1236551" data-name="Group 1236551">
            <line id="Line_663" data-name="Line 663" transform="translate(41.768 9.189)" fill="none" stroke="#000" stroke-linecap="round" stroke-linejoin="round" stroke-miterlimit="10" stroke-width="1.616"/>
            <line id="Line_664" data-name="Line 664" transform="translate(45.904 9.189)" fill="none" stroke="#000" stroke-linecap="round" stroke-linejoin="round" stroke-miterlimit="10" stroke-width="1.616"/>
            <line id="Line_665" data-name="Line 665" transform="translate(50.04 9.189)" fill="none" stroke="#000" stroke-linecap="round" stroke-linejoin="round" stroke-miterlimit="10" stroke-width="1.616"/>
          </g>
          <line id="Line_666" data-name="Line 666" x2="5.792" transform="translate(31.595 19.809)" fill="none" stroke="#000" stroke-linecap="round" stroke-linejoin="round" stroke-miterlimit="10" stroke-width="1.616"/>
          <path id="Path_1263270" data-name="Path 1263270" d="M49.309,15.836a7.506,7.506,0,0,0,4.871-6.772c0-4.149-3.849-7.512-8.6-7.512s-8.6,3.363-8.6,7.512A7.568,7.568,0,0,0,42.2,15.972l-.716,2.089a.471.471,0,0,0,.687.557l3.411-2.042" fill="none" stroke="#000" stroke-linecap="round" stroke-linejoin="round" stroke-miterlimit="10" stroke-width="1.616"/>
        </g>
      </g>
    </g>
  </g>
</svg>
