<svg xmlns="http://www.w3.org/2000/svg" xmlns:xlink="http://www.w3.org/1999/xlink" width="150" height="81" viewBox="0 0 150 81">
  <defs>
    <clipPath id="clip-path">
      <rect id="Rectangle_428074" data-name="Rectangle 428074" width="150" height="81" transform="translate(-11663 -14725)" fill="#fff" opacity="0.53"/>
    </clipPath>
    <clipPath id="clip-path-2">
      <rect id="Rectangle_428073" data-name="Rectangle 428073" width="119.549" height="116.121"/>
    </clipPath>
  </defs>
  <g id="Mask_Group_1099419" data-name="Mask Group 1099419" transform="translate(11662.999 14725)" clip-path="url(#clip-path)">
    <g id="Group_1235953" data-name="Group 1235953" transform="translate(-11594.797 -14767.836) rotate(43)">
      <g id="Group_1235952" data-name="Group 1235952" clip-path="url(#clip-path-2)">
        <path id="Path_1262608" data-name="Path 1262608" d="M72.65,83.171c.784.422.812-.488,1.235-.7.223-.073,2.39-1.394,2.584-1.525,2.978-2.029,4.95-5.04,7.388-7.595a15.191,15.191,0,0,0,1.512-2.313c.234-.359.483-.709.725-1.063-.667-.134-.722.564-1.1.82-.121.08-.188.239-.308.323a1.66,1.66,0,0,1-.387.148c0-.128-.051-.3.013-.376a15.73,15.73,0,0,0,2.4-3.989,2.35,2.35,0,0,1,1.241-1.182c.62-.186.516-.274.2-.63-.046-.052.1-.379.125-.375a6.461,6.461,0,0,1,.726.2,3.261,3.261,0,0,1-.472-.692,1.423,1.423,0,0,1-.01-.692c1.036-.142.84-1.31,1.508-1.809.342-.256-.277-.2-.455-.3-.061-.035-.052-.375.038-.464a5.624,5.624,0,0,0,1.851-4.052c.088-1.045.749-2.021.443-3.135.93-2.491.844-5.153,1.1-7.727a38.687,38.687,0,0,0-.388-7.6,6.361,6.361,0,0,1-.045-1.092c.036-.6.268-1.339-.4-1.86a1.033,1.033,0,0,1-.309-.753c.068-2.137-1.061-3.941-1.612-5.9a31.694,31.694,0,0,1-1.073-3.376,6.538,6.538,0,0,0-.761-1.95c-.923-1.855-1.691-3.787-2.564-5.667-.7-1.5-1.462-2.978-2.2-4.464a3.83,3.83,0,0,1-.457-2.34c.087-.494-.072-.363-.366-.439a5.817,5.817,0,0,1-1.122-.554,4.84,4.84,0,0,0-.6,1.277c-.364,2.563-1.277,5.006-1.586,7.587a11.73,11.73,0,0,1-1.1,3.988,7.024,7.024,0,0,0-.522,2.029,50.24,50.24,0,0,1-1.323,5.468,42.475,42.475,0,0,1-1.667,5.355c-.386.79-.169,1.876-1.092,2.462-.168.106-.41.263-.544.21a.736.736,0,0,1-.32-.51c-.065-.366-.038-.746-.079-1.117a2.585,2.585,0,0,0-.17-.517c-.169.128-.344.248-.5.387-.112.1-.193.231-.3.329-.57.5-.613.483-.936-.4-.048-.129-.117-.25-.243-.61-.072-.123-.077-.011-.083.1l.283-.015a2.031,2.031,0,0,0-.068-.329c-.006-.018-.125,0-.132.243-.351.69-.61.259-.821.024a3.415,3.415,0,0,1-.669-2.644,4.759,4.759,0,0,1,.537-1.775c.211-.416-.134-1.18.707-1.247.055,0,.163-.234.131-.28a1.944,1.944,0,0,1-.14-2.218c-.853-1.472.3-2.833.26-4.276a4.722,4.722,0,0,1,.586-2.615c.646-.97.05-1.888.281-2.773.355-1.364.474-2.768.769-4.124.382-1.755.459-3.6,1.247-5.26.117-.246.069-.59.224-.792.39-.507,1-.93.29-1.622a1.649,1.649,0,0,0,.336-1.657c-.133-.677-.447-1.895.718-2.4-.8-.979.239-1.356.651-1.923.089-.123.335-.132.508-.194-.087.189-.3.467-.239.552.315.446.7.843,1.06,1.257.072-.077.2-.15.207-.232.027-.349.019-.7.023-1.052l.781.276c-.025-.161-.055-.32-.073-.481S78.067.22,78.056.064c1.143.023,2.381-.256,3.4.194A4.769,4.769,0,0,0,84.5.992c.525,1.189,1.44.539,2.269.549.97.013,1.931.359,2.905.425.918.062,1.784.833,2.771.219.061-.038.517.3.525.482.021.435.242.508.529.377,1.211-.553,2.209.391,3.328.432.845.031,1.612.942,2.52.219,1.036.648,2.214.28,3.309.474s2.162.5,3.238.77c.334.084.777.119.958.346.476.6.894.445,1.473.185a1.587,1.587,0,0,1,1.3-.064c.993.755,2.277.549,3.292,1.148.026,1.393.828-.171.863.188.074.767.764.593,1.133.863a7.211,7.211,0,0,0,1.537.588c.639.263,1.372.2,1.941.752.591.571.491.722-.255.816a1.16,1.16,0,0,0-.092.7,8.185,8.185,0,0,1,.337,1.4c.038.2.119-.05.2-.3-.148.058-.357.075-.431.183a6.057,6.057,0,0,0-.408.824c.179-.081.358-.163.639-.71.267-.61.515-.946.711-.918.389.057.614.334.281.777-.363.483.764,1.222-.262,1.63-.32.127-.615.441-.924.445a13.122,13.122,0,0,1-3.238-.154c-3.25-.8-6.534-1.426-9.814-2.067-2.058-.4-4.054-1.144-6.181-1.18-.783-.013-1.342-.984-2.235-.518-1.394-.762-3.054-.584-4.434-1.126-1.2-.47-2.455-.509-3.614-.983-.19-.077-.422-.047-.62-.109-.473-.147-.8-1.334-1.313-.472a2.288,2.288,0,0,0,.513,2.091,16.625,16.625,0,0,1,3.441,5.042c.636,1.334,1.593,2.44,2.246,3.751a32.675,32.675,0,0,0,2.189,3.774c.946,1.393,1.393,3.01,2.195,4.471.759,1.383,1.249,2.919,1.922,4.362a13.182,13.182,0,0,1,.556,2.032c.356,1.273,1.074,2.444,1.314,3.723.237,1.262.67,2.505.812,3.735.356,3.1,1.106,6.169.635,9.373-.246,1.678-.128,3.43-.417,5.14-.407,2.4-.576,4.864-1.783,7.065-.219,2.926-1.658,5.424-2.832,8.012a19.907,19.907,0,0,1-2.915,5.134,7.255,7.255,0,0,0-1.472,2.329c-.525,1.547-1.766,2.482-2.737,3.645-.958,1.147-1.97,2.252-3,3.338-.647.684-1.367,1.3-2.053,1.944-.634.6-1.172,1.467-1.923,1.726-.911.315-1.3,1.406-2.344,1.362a25.807,25.807,0,0,1-8.222,4.423,37.827,37.827,0,0,1-4.422,1.316,2.46,2.46,0,0,0-1.87,1.616,42.568,42.568,0,0,1-2.271,4.053c-1.546,2.675-3.759,4.731-5.811,6.915a21.357,21.357,0,0,1-5.28,3.8,37.525,37.525,0,0,1-5.647,2.613c-1.587.564-3.206,1-4.816,1.427a24.668,24.668,0,0,1-4.545.593,44.971,44.971,0,0,1-17.288-2.072,43.188,43.188,0,0,1-7.857-3.313c-1.113-.622-1.884-1.682-2.981-2.1a7.648,7.648,0,0,1-3.1-2.334A39.639,39.639,0,0,1,1.473,98.7c-.5-.987-.995-1.977-1.411-3-.117-.289-.066-.895.118-1a1.331,1.331,0,0,1,1.177-.09c.7.5,1.428.922,2.152,1.367a4.269,4.269,0,0,1,1.676,2.133,4.968,4.968,0,0,0,1.123,1.848c.54.59,1.1,1.164,1.654,1.736.379.389,1.053.677.416,1.37.079.071.147.186.237.206,1.2.27,1.435.264,2.1.954.386.4.952.32,1.31.805.249.336.908.374,1.388.533a13.2,13.2,0,0,0,3.354,1.012c.742.032-.164,1.588.994.8.29-.2.93.015,1.37.159.919.3,1.984.186,2.748,1.036.115.128.972.7,1.5-.014.113-.152.578-.1.866-.053,1.03.166,1.854.963,3.121.53a8.685,8.685,0,0,1,3.22.079c.841.061.153.386.105.622-.014.068.263.291.322.264,1.88-.881,1.986-.9,3.715-.805a2.574,2.574,0,0,0,1.317-.115,2.859,2.859,0,0,1,2.241-.123c.625.133,1.519.306,2.007-.528l.376.139-.076-.473c.278-.208.409-.788.934-.368l-.139.375.473-.076a2.062,2.062,0,0,0,1.868-.735c.525.42.657-.16.934-.368.525.42.657-.16.934-.367.784.421.812-.488,1.234-.7,1.226.242,1.794-.674,2.468-1.4.056.05.149.151.162.143.91-.662,1.846-1.3,2.709-2.015.765-.638,1.188-1.679,2.314-1.9.177-.035.281-.345.458-.476.512-.381.025-1.615,1.21-1.41-.154-.91.724-1.208,1.069-1.822.259-.461-.026-.665-.468-.7q-3.523-.294-7.047-.58a6.214,6.214,0,0,1-.848-.089c-2.1-.472-4.2-.946-6.3-1.441q-1.517-.358-3.015-.794c-.994-.291-1.991-.586-2.958-.955a70.8,70.8,0,0,1-9.167-3.934c-2.176-1.2-4.254-2.511-6.349-3.837A49.449,49.449,0,0,1,14,78.661a24.861,24.861,0,0,1-3.727-4.844,19.28,19.28,0,0,1-2.94-7.1,18.466,18.466,0,0,1-.372-2.53,5.975,5.975,0,0,1,.22-2.76,6.934,6.934,0,0,0,.792-2.364c.086-.756,1.379-.272,1.163-1.2-.167-.72.316-1.084.7-1.517a16.507,16.507,0,0,1,1.358-1.49c.522-.464,1.141-.816,1.695-1.246s.779-1.309,1.713-1.241c.091.007.178-.259.3-.309.6-.241-.172-1.342.833-1.305-.027.989.4.449.826.294A4.877,4.877,0,0,0,18.6,50a2.746,2.746,0,0,1,1.471-.722c1.794-.268,3.6-.449,5.408-.625a19.269,19.269,0,0,1,3.878.1,45.406,45.406,0,0,1,5.331.355c.612.137,1.243.21,1.837.4,1.717.543,3.47.958,5.193,1.473.552.165,1.467-.153,1.533.915.006.087.356.189.556.22a19.063,19.063,0,0,1,5.421,2.1c1.8.964,3.373,2.3,5.276,3.079a4.123,4.123,0,0,1,1.024.835q2.507,2.244,5,4.5a5.094,5.094,0,0,1,1.749,2.151A5.484,5.484,0,0,0,63.8,66.812a7.6,7.6,0,0,1,1.233,1.925,46.789,46.789,0,0,1,3.7,10.39,25.491,25.491,0,0,1,.268,4.246c.051.871.362,1.015,1.176.519.6-.363,1.157-.782,1.751-1.148.074-.045.253.079.383.125-.247.275-.5.545-.735.828-.035.042-.029.189,0,.2.1.051.275.124.319.082.265-.255.5-.539.749-.814M74.268,8.214q-.009.167-.017.336l.283-.015a2.071,2.071,0,0,0-.068-.329c-.006-.018-.125,0,.083.612L74.4,8.684a1.233,1.233,0,0,0-.127.344c0,.035.163.084.252.126.008-.112.015-.224-.257-.94M60.518,102.1c-.006.112-.011.224-.017.336l.283-.015a2.021,2.021,0,0,0-.068-.329c-.007-.018-.125,0-.066.478a7.035,7.035,0,0,1-1.066.877,1.559,1.559,0,0,0,.474-.242.64.64,0,0,0,.125-.423,3.637,3.637,0,0,0-.648-.255c.015.279.03.558.815.376l.376.139a9.583,9.583,0,0,0-.208-.943M47.5,109.416l.336.017c0-.094-.01-.189-.015-.283a2.091,2.091,0,0,0-.329.068c-.018.006,0,.125.612-.083l-.133.149a1.233,1.233,0,0,0,.344.127c.035,0,.084-.163.126-.252-.112-.008-.224-.016-.94.257M87.013,82.05c1.667-2.119,3.293-4.042,4.735-6.094a14.4,14.4,0,0,1,1.513-2.323c.046-.045-.119-.427-.267-.514a.717.717,0,0,0-.525.115c.02,1.481-1.537,1.977-1.99,3.264-.413,1.173-1.641,2.062-2.52,3.068-.591.676-1.158,1.38-1.81,1.993-.67.631-1.467,1.126-2.141,1.752a29.7,29.7,0,0,1-4.027,3.123,47.567,47.567,0,0,1-5.487,3.427c-.812.384-1.587.849-2.37,1.291a1.473,1.473,0,0,0-.3.328c.13.046.3.17.385.126,1.471-.805,3.316-.774,4.621-1.853a34.729,34.729,0,0,1,4.6-2.9c.295-.175.706-.195.945-.415,1.607-1.482,3.183-3-11.019,5.178l.336.017c0-.094-.01-.189-.015-.283a2.073,2.073,0,0,0-.329.068c-.018.007,0,.125,15.669-9.365m-66.5-3.8c1.647.983,3.247,2.061,4.964,2.9a20.824,20.824,0,0,0,2.032,1.078c.719.257,1.449.586,2.139.776,1.414.391,2.541,1.577,4.113,1.446,2.79,1.1,5.765,1.521,8.646,2.286a40.056,40.056,0,0,0,5,.795c2.454.327,4.932-.144,7.4.219a7.955,7.955,0,0,0,1.916-.276c.952-.11,1.907-.2,2.863-.253.281-.015-.064.945.469.51a3.8,3.8,0,0,0,1.708-2.888c-.008-1.966.509-3.919.039-5.9-.283-1.194-.348-2.439-.537-3.656-.4-2.59-1.689-4.857-2.778-7.176a6.971,6.971,0,0,0-1.178-1.73c-.513-.542-1.115-1-1.656-1.513-.582-.556-1.356-1.048-1.645-1.736-.271-.646-1.471-.313-1.169-1.313-1.648-.282-2.749-1.626-4.29-2.175-1.432-.51-2.914-.934-4.291-1.539-4.479-1.97-9.221-2.42-14-2.7a20.247,20.247,0,0,0-7.079,1.065,14.2,14.2,0,0,0-7.086,4.367c-.438.537-.632,1.271-1.07,1.809a7.63,7.63,0,0,0-1.422,5.63,11.457,11.457,0,0,0,1.456,4.1,13.93,13.93,0,0,0,2.013,2.486c.5.585,1.36.889,1.408,1.823,1.1-.141,1.387.995,2.041,1.568m20.575,35.273c.021.179.04.4.05.4a6.328,6.328,0,0,0,1.543-.114,51.464,51.464,0,0,0,10.014-3.95c1.033-.57,1.884-1.38,3-1.867,1.071-.469,1.351-2.083,2.733-2.367a1.567,1.567,0,0,0-.049-.637c-.024-.076-.347-.158-.38-.117-1.575,2.007-3.946,2.954-5.982,4.285a28.657,28.657,0,0,1-10.378,4.125,2.631,2.631,0,0,0-.55.238M15.473,58.131c-.258.287-.371.389-.454.51-.182.266-.665.468-.238.888s.635.006.862-.249A12.681,12.681,0,0,1,21.36,55.53c.154-.049.238-.316.354-.481-.172-.044-.363-.159-.513-.12a13.523,13.523,0,0,0-5.728,3.2m-2.3-4.214a6.452,6.452,0,0,0-.382.6c-.012.024.194.2.212.191.726-.527,1.447-1.061,2.151-1.618.079-.063.051-.262.072-.4a1.41,1.41,0,0,0-.4.113c-.576.373-1.141.764-1.657,1.112M73.811,83.727c-.144.353-.221.541-.3.73.211-.084.433-.26.631-.237.728.086.994-.485,1.373-.894a1.1,1.1,0,0,0,.14-.376,2.186,2.186,0,0,0-.481.1c-.49.227-.969.476-1.366.674m5.37-3.856L78.416,81c.709.1.846-.578,1.21-.922a8.463,8.463,0,0,0,.9-1.194c-.707-.1-.793.636-1.347.983M76.7,82.022l-.419.7c.595.242.621-.4.924-.61a3.185,3.185,0,0,0,.593-.651c.034-.042.019-.194-.011-.207-.1-.044-.274-.106-.328-.058-.219.2-.4.428-.76.826m-18.866,19.9-.873.046c.087.179.173.507.262.508a1.663,1.663,0,0,0,.683-.238c.022-.011-.046-.208-.072-.317M13.73,56.578c-.021.2-.045.427-.068.649.17-.113.392-.19.5-.347a2.3,2.3,0,0,0,.205-.645l-.636.342M78.353,84.322a1.3,1.3,0,0,0-.044.294,1.7,1.7,0,0,0,.706.172c.087-.009.141-.344.21-.531l-.872.065m8.208-16.1c-.123.351-.167.477-.212.6a1.342,1.342,0,0,0,.469-.1c.089-.058.1-.238.142-.364l-.4-.136m-8.114-56.63a3.415,3.415,0,0,0,.425.485c.049.038.206-.06.314-.1a3.22,3.22,0,0,0-.345-.5c-.037-.038-.207.053-.393.106m-3.31-8.407a3.383,3.383,0,0,0,.424.484c.049.039.206-.06.314-.1a3.266,3.266,0,0,0-.344-.5c-.038-.038-.207.052-.394.106M49.452,105.761c.191.034.37.106.4.064a3.221,3.221,0,0,0,.29-.529c-.111-.024-.278-.105-.322-.061a3.4,3.4,0,0,0-.371.527M37.212,114.68c.191.034.37.106.4.064a3.221,3.221,0,0,0,.29-.529c-.111-.024-.278-.105-.322-.062a3.418,3.418,0,0,0-.371.527m45.2-32.919c.043-.164.093-.356.144-.549-.132.034-.321.027-.382.113a2.272,2.272,0,0,0-.218.556l.457-.119M21.041,49.783l-.211.6a1.342,1.342,0,0,0,.469-.1c.089-.058.1-.238.142-.365l-.4-.136M51.3,104.512c.2-.053.393-.046.454-.132a2.261,2.261,0,0,0,.218-.556c-.132.034-.312.027-.384.113a2.715,2.715,0,0,0-.288.575m2.3,1.467c.2-.054.393-.047.454-.132a2.286,2.286,0,0,0,.218-.556c-.132.034-.312.027-.384.112a2.72,2.72,0,0,0-.289.575M18.436,51.423c-.03.2-.049.333-.069.467a2.258,2.258,0,0,0,.529-.276c.078-.07.051-.257.071-.392l-.531.2m54.339,33.09a3.362,3.362,0,0,0-.485.425c-.039.049.06.206.1.314a3.263,3.263,0,0,0,.5-.345c.038-.037-.053-.207-.106-.393M42.383,108.788c0,.07-.017.185.016.2a1.379,1.379,0,0,0,.318.1c0-.07.017-.185-.016-.2a1.375,1.375,0,0,0-.318-.1m2.094-.748-.225.012a1.4,1.4,0,0,0,.13.306c.022.031.133,0,.2-.006l-.109-.312m2.968-1.43-.075.322c.071,0,.185.017.2-.016a1.393,1.393,0,0,0,.1-.318l-.226.012m1.155-.471.322.074c0-.07.017-.184-.016-.2a1.408,1.408,0,0,0-.318-.1c0,.07.008.141.012.226m4.369.177.075-.322c-.071,0-.185-.017-.2.016a1.379,1.379,0,0,0-.1.318l.226-.012m-41.222-47.4c0,.07-.017.185.016.2a1.438,1.438,0,0,0,.318.1c0-.071.017-.185-.016-.2a1.4,1.4,0,0,0-.318-.1m46.824,41.693.226-.012a1.425,1.425,0,0,0-.13-.306c-.022-.03-.133,0-.2.006l.108.312M12.347,58.251c0,.07-.017.184.015.2a1.39,1.39,0,0,0,.318.1c0-.071.017-.184-.016-.2a1.381,1.381,0,0,0-.318-.1m.708-.356.226-.012a1.425,1.425,0,0,0-.13-.306c-.022-.031-.133,0-.2.006l.109.312M56.907,94.978c.071,0,.185.017.2-.016a1.4,1.4,0,0,0,.1-.318c-.07,0-.185-.017-.2.016a1.412,1.412,0,0,0-.1.318M15.387,55.637c0,.085.008.155.012.226a1.383,1.383,0,0,0,.306-.13c.031-.022,0-.133-.006-.2l-.312.108m.465-3.2c0,.085.008.155.012.226a1.4,1.4,0,0,0,.306-.13c.031-.022,0-.133-.006-.2l-.312.108m4.491-.967-.075.322c.071,0,.185.017.2-.016a1.4,1.4,0,0,0,.1-.318l-.225.012M70.111,86.234l.322.075c0-.071.017-.185-.016-.2a1.415,1.415,0,0,0-.318-.1c0,.071.008.141.012.226m17.62-19.605-.226.012a1.425,1.425,0,0,0,.13.306c.022.031.133,0,.2-.006l-.109-.312m6.709,3.139-.075.322c.071,0,.185.017.2-.016a1.412,1.412,0,0,0,.1-.318l-.226.012m-1.868-3.489c0-.085-.008-.155-.012-.226a1.37,1.37,0,0,0-.306.13c-.031.022,0,.133.006.2l.312-.108M72.789,30.865l-.226.012a1.4,1.4,0,0,0,.13.306c.022.031.133,0,.2-.006l-.108-.312m4.925-18.384c-.024.1-.049.213-.075.321.071,0,.185.017.2-.016a1.383,1.383,0,0,0,.1-.318l-.226.012M81.909,9.4c.07,0,.185.017.2-.016a1.423,1.423,0,0,0,.1-.318c-.071,0-.185-.017-.2.016a1.379,1.379,0,0,0-.1.318M85.5,11.2c0,.085.008.155.012.226a1.391,1.391,0,0,0,.306-.131c.031-.022,0-.133-.006-.2L85.5,11.2m.578-1.076c.071,0,.185.017.2-.016a1.4,1.4,0,0,0,.1-.318c-.071,0-.185-.017-.2.016a1.415,1.415,0,0,0-.1.318m16.185-.545c.07,0,.185.017.2-.016a1.4,1.4,0,0,0,.1-.318c-.07,0-.185-.017-.2.016a1.4,1.4,0,0,0-.1.318m15.006,1.2c0,.085.008.155.012.226a1.4,1.4,0,0,0,.306-.13c.03-.022,0-.133-.006-.2l-.312.108M70.4,91.715c0,.07-.017.185.016.2a1.415,1.415,0,0,0,.318.1c0-.071.017-.185-.016-.2a1.4,1.4,0,0,0-.318-.1" transform="translate(0 0)"/>
        <path id="Path_1262609" data-name="Path 1262609" d="M156.509,188.075c.669-.378.749-1.323,1.634-1.295a11.6,11.6,0,0,1-1.194,1.528c-.482.449-.635,1.312-1.517,1.287l1.077-1.521" transform="translate(-86.793 -104.298)"/>
        <path id="Path_1262610" data-name="Path 1262610" d="M164.418,180.125l-1.3,1.131c-.146-.789.611-1.017.964-1.476a14.93,14.93,0,0,1,1.539-1.519c.011.9-.9,1.162-1.2,1.864" transform="translate(-91.075 -99.541)"/>
        <path id="Path_1262611" data-name="Path 1262611" d="M151.132,194.324c.388-.432.579-.657.787-.866.038-.038.191-.04.207-.011.055.1.134.261.093.32a4.57,4.57,0,0,1-.584.662c-.255.239-.537.45-.808.673l.305-.777" transform="translate(-84.222 -108.01)"/>
        <path id="Path_1262612" data-name="Path 1262612" d="M147.207,198.155a4.754,4.754,0,0,1-.439.473c-.062.052-.2.019-.3.024a1.022,1.022,0,0,1,.055-.4,2.075,2.075,0,0,1,.427-.482c.2-.172.439-.31.66-.462-.087.227-.17.457-.265.68a.7.7,0,0,1-.141.162" transform="translate(-81.789 -110.18)"/>
        <path id="Path_1262613" data-name="Path 1262613" d="M96.487,244.629l-.636.342a2.293,2.293,0,0,1,.206-.645,1.712,1.712,0,0,1,.5-.347c-.023.223-.046.445-.068.649" transform="translate(-53.523 -136.239)"/>
        <path id="Path_1262614" data-name="Path 1262614" d="M82.541,253.507l.43-.151a5.943,5.943,0,0,1-.25.654c-.022.044-.186.016-.284.021l.105-.525" transform="translate(-46.032 -141.474)"/>
        <path id="Path_1262615" data-name="Path 1262615" d="M90.926,248.74l.43-.151a5.942,5.942,0,0,1-.251.654c-.022.044-.185.016-.284.022l.105-.525" transform="translate(-50.715 -138.812)"/>
        <path id="Path_1262616" data-name="Path 1262616" d="M143.282,201.064c.1-.109.177-.256.3-.318a1.67,1.67,0,0,1,.474-.091,2.142,2.142,0,0,1-.15.378,2.682,2.682,0,0,1-.29.331l-.334-.3" transform="translate(-80.009 -112.047)"/>
        <path id="Path_1262617" data-name="Path 1262617" d="M70.681,258.844l-.076-.473.376.139-.3.334" transform="translate(-39.426 -144.275)"/>
        <path id="Path_1262618" data-name="Path 1262618" d="M73.571,257.757l.473-.076-.139.376-.334-.3" transform="translate(-41.082 -143.889)"/>
        <path id="Path_1262619" data-name="Path 1262619" d="M78.237,255.784c.073,0,.192-.026.2-.008a2.033,2.033,0,0,1,.068.329l-.283.015c.006-.112.011-.224.017-.336" transform="translate(-43.678 -142.822)"/>
        <path id="Path_1262620" data-name="Path 1262620" d="M80.352,254.951c.073,0,.192-.026.2-.008a2.079,2.079,0,0,1,.068.329l-.283.015c.006-.112.011-.224.017-.336" transform="translate(-44.859 -142.357)"/>
        <path id="Path_1262621" data-name="Path 1262621" d="M85.263,252.529c.073,0,.192-.026.2-.008a2.07,2.07,0,0,1,.068.329l-.283.015c.006-.112.011-.224.017-.336" transform="translate(-47.601 -141.004)"/>
        <path id="Path_1262622" data-name="Path 1262622" d="M88,251.257a1.409,1.409,0,0,1,.1-.318c.019-.033.132-.012.2-.016a1.393,1.393,0,0,1-.1.318c-.019.033-.132.012-.2.016" transform="translate(-49.139 -140.114)"/>
      </g>
    </g>
  </g>
</svg>
